<svg xmlns="http://www.w3.org/2000/svg" xmlns:xlink="http://www.w3.org/1999/xlink" xmlns:inkscape="http://www.inkscape.org/namespaces/inkscape" version="1.1" width="127.905" height="133.093" viewBox="0 0 127.905 133.093">
<path transform="matrix(1,0,0,-1,34.931,87.231)" stroke-width=".3985" stroke-linecap="butt" stroke-dasharray="2.98883,2.98883" stroke-miterlimit="10" stroke-linejoin="miter" fill="none" stroke="#000000" d="M0 0H81.33093"/>
<path transform="matrix(1,0,0,-1,114.23291,87.231)" d="M5.17104 0 .64343 1.70436 2.12863 0 .64343-1.70436Z"/>
<path transform="matrix(1,0,0,-1,114.23291,87.231)" stroke-width=".3985" stroke-linecap="butt" stroke-miterlimit="10" stroke-linejoin="miter" fill="none" stroke="#000000" d="M5.17104 0 .64343 1.70436 2.12863 0 .64343-1.70436Z"/>
<text xml:space="preserve" transform="matrix(1 0 -0 1 0 133.093)" font-size="9.96264" font-family="Computer Modern" font-style="italic"><tspan y="-38.053" x="117.35">y</tspan></text>
<path transform="matrix(1,0,0,-1,34.931,87.231)" stroke-width=".3985" stroke-linecap="butt" stroke-dasharray="2.98883,2.98883" stroke-miterlimit="10" stroke-linejoin="miter" fill="none" stroke="#000000" d="M0 0V81.33093"/>
<path transform="matrix(0,-1,-1,-0,34.931,7.9290926)" d="M5.17104 0 .64343 1.70436 2.12863 0 .64343-1.70436Z"/>
<path transform="matrix(0,-1,-1,-0,34.931,7.9290926)" stroke-width=".3985" stroke-linecap="butt" stroke-miterlimit="10" stroke-linejoin="miter" fill="none" stroke="#000000" d="M5.17104 0 .64343 1.70436 2.12863 0 .64343-1.70436Z"/>
<text xml:space="preserve" transform="matrix(1 0 -0 1 0 133.093)" font-size="9.96264" font-family="Computer Modern" font-style="italic"><tspan y="-123.092" x="38.451">z</tspan></text>
<path transform="matrix(1,0,0,-1,34.931,87.231)" stroke-width=".3985" stroke-linecap="butt" stroke-dasharray="2.98883,2.98883" stroke-miterlimit="10" stroke-linejoin="miter" fill="none" stroke="#000000" d="M0 0-30.11707-30.11707"/>
<path transform="matrix(-.7071,.7071,.7071,.7071,6.248659,115.913349)" d="M5.17104 0 .64343 1.70436 2.12863 0 .64343-1.70436Z"/>
<path transform="matrix(-.7071,.7071,.7071,.7071,6.248659,115.913349)" stroke-width=".3985" stroke-linecap="butt" stroke-miterlimit="10" stroke-linejoin="miter" fill="none" stroke="#000000" d="M5.17104 0 .64343 1.70436 2.12863 0 .64343-1.70436Z"/>
<text xml:space="preserve" transform="matrix(1 0 -0 1 0 133.093)" font-size="9.96264" font-family="Computer Modern" font-style="italic"><tspan y="-5.313" x="5.712">x</tspan></text>
<path transform="matrix(1,0,0,-1,34.931,87.231)" stroke-width=".3985" stroke-linecap="butt" stroke-miterlimit="10" stroke-linejoin="miter" fill="none" stroke="#000000" d="M0 0H52.98413"/>
<path transform="matrix(1,0,0,-1,85.88611,87.231)" d="M5.17104 0 .64343 1.70436 2.12863 0 .64343-1.70436Z"/>
<path transform="matrix(1,0,0,-1,85.88611,87.231)" stroke-width=".3985" stroke-linecap="butt" stroke-miterlimit="10" stroke-linejoin="miter" fill="none" stroke="#000000" d="M5.17104 0 .64343 1.70436 2.12863 0 .64343-1.70436Z"/>
<text xml:space="preserve" transform="matrix(1 0 -0 1 -.0000076293949 133.093)" font-size="9.96264" font-family="Computer Modern"><tspan y="-53.6" x="89.134">&#x02c6;</tspan></text>
<text xml:space="preserve" transform="matrix(1 0 -0 1 -.0000076293949 133.093)" font-size="9.96264" font-family="Computer Modern" font-style="italic"><tspan y="-51.319" x="89.288">j</tspan></text>
<path transform="matrix(1,0,0,-1,34.931,87.231)" stroke-width=".3985" stroke-linecap="butt" stroke-miterlimit="10" stroke-linejoin="miter" fill="none" stroke="#000000" d="M0 0V52.98413"/>
<path transform="matrix(0,-1,-1,-0,34.931,36.275896)" d="M5.17104 0 .64343 1.70436 2.12863 0 .64343-1.70436Z"/>
<path transform="matrix(0,-1,-1,-0,34.931,36.275896)" stroke-width=".3985" stroke-linecap="butt" stroke-miterlimit="10" stroke-linejoin="miter" fill="none" stroke="#000000" d="M5.17104 0 .64343 1.70436 2.12863 0 .64343-1.70436Z"/>
<text xml:space="preserve" transform="matrix(1 0 -0 1 0 133.093)" font-size="9.96264" font-family="Computer Modern"><tspan y="-100.41" x="26.171">&#x02c6;</tspan></text>
<text xml:space="preserve" transform="matrix(1 0 -0 1 0 133.093)" font-size="9.96264" font-family="Computer Modern" font-style="italic"><tspan y="-97.781" x="25.911">k</tspan></text>
<path transform="matrix(1,0,0,-1,34.931,87.231)" stroke-width=".3985" stroke-linecap="butt" stroke-miterlimit="10" stroke-linejoin="miter" fill="none" stroke="#000000" d="M0 0-19.20372-19.20372"/>
<path transform="matrix(-.7071,.7071,.7071,.7071,17.162,105)" d="M5.17104 0 .64343 1.70436 2.12863 0 .64343-1.70436Z"/>
<path transform="matrix(-.7071,.7071,.7071,.7071,17.162,105)" stroke-width=".3985" stroke-linecap="butt" stroke-miterlimit="10" stroke-linejoin="miter" fill="none" stroke="#000000" d="M5.17104 0 .64343 1.70436 2.12863 0 .64343-1.70436Z"/>
<text xml:space="preserve" transform="matrix(1 0 -0 1 0 133.093)" font-size="9.96264" font-family="Computer Modern"><tspan y="-32.825" x="10.614">&#x02c6;</tspan></text>
<text xml:space="preserve" transform="matrix(1 0 -0 1 0 133.093)" font-size="9.96264" font-family="Computer Modern" font-style="italic"><tspan y="-30.544" x="11.389">i</tspan></text>
<path transform="matrix(1,0,0,-1,34.931,87.231)" d="M.99628 0C.99628 .55023 .55023 .99628 0 .99628-.55023 .99628-.99628 .55023-.99628 0-.99628-.55023-.55023-.99628 0-.99628 .55023-.99628 .99628-.55023 .99628 0ZM0 0"/>
</svg>
